HIERARCHY
ROOT Hips
{
  OFFSET 5.72205e-005 65.662 3.42586
  CHANNELS 6 Xposition Yposition Zposition Zrotation Xrotation Yrotation
  JOINT Chest
  {
    OFFSET 0 8.7983 -4.7612
    CHANNELS 3 Zrotation Xrotation Yrotation
    JOINT Chest2
    {
      OFFSET 0 8.0291 0.4195
      CHANNELS 3 Zrotation Xrotation Yrotation
      JOINT Chest3
      {
        OFFSET 0 9.9351 -2.2114
        CHANNELS 3 Zrotation Xrotation Yrotation
        JOINT Neck
        {
          OFFSET 0 22.3885 -0.4656
          CHANNELS 3 Zrotation Xrotation Yrotation
          JOINT Head
          {
            OFFSET -0.0001 12.643 3.4389
            CHANNELS 3 Zrotation Xrotation Yrotation
            End Site
            {
              OFFSET 0.0001 17.6655 0.5274
            }
          }
        }
        JOINT LeftCollar
        {
          OFFSET 2.2603 21.606 7.4023
          CHANNELS 3 Zrotation Xrotation Yrotation
          JOINT LeftShoulder
          {
            OFFSET 13.5163 -1.1332 -5.0146
            CHANNELS 3 Zrotation Xrotation Yrotation
            JOINT LeftElbow
            {
              OFFSET -0.0995 -28.05 -0.2431
              CHANNELS 3 Zrotation Xrotation Yrotation
              JOINT LeftWrist
              {
                OFFSET 0.0679 -23.3996 -0.1402
                CHANNELS 3 Zrotation Xrotation Yrotation
                JOINT LeftFinger1
                {
                  OFFSET 0.7932 -9.069 2.5189
                  CHANNELS 3 Zrotation Xrotation Yrotation
                  JOINT LeftFinger11
                  {
                    OFFSET -0.8272 -3.3923 0.5977
                    CHANNELS 3 Zrotation Xrotation Yrotation
                    JOINT LeftFinger12
                    {
                      OFFSET -0.5649 -2.3158 0.4082
                      CHANNELS 3 Zrotation Xrotation Yrotation
                      End Site
                      {
                        OFFSET -0.4919 -1.6479 0.2673
                      }
                    }
                  }
                }
                JOINT LeftFinger2
                {
                  OFFSET 0.9159 -9.2044 0.2193
                  CHANNELS 3 Zrotation Xrotation Yrotation
                  JOINT LeftFinger21
                  {
                    OFFSET 0.0117 -4.1944 -0.0248
                    CHANNELS 3 Zrotation Xrotation Yrotation
                    JOINT LeftFinger22
                    {
                      OFFSET 0.0071 -2.3249 -0.0142
                      CHANNELS 3 Zrotation Xrotation Yrotation
                      End Site
                      {
                        OFFSET -0.1475 -2.0882 0.0028
                      }
                    }
                  }
                }
                JOINT LeftFinger3
                {
                  OFFSET 0.6113 -8.7231 -2.0637
                  CHANNELS 3 Zrotation Xrotation Yrotation
                  JOINT LeftFinger31
                  {
                    OFFSET -0.1927 -3.8059 -0.2383
                    CHANNELS 3 Zrotation Xrotation Yrotation
                    JOINT LeftFinger32
                    {
                      OFFSET -0.1091 -2.1688 -0.1362
                      CHANNELS 3 Zrotation Xrotation Yrotation
                      End Site
                      {
                        OFFSET -0.2358 -1.9176 -0.0906
                      }
                    }
                  }
                }
                JOINT LeftFinger4
                {
                  OFFSET -0.6151 -8.0947 -3.5641
                  CHANNELS 3 Zrotation Xrotation Yrotation
                  JOINT LeftFinger41
                  {
                    OFFSET -0.4882 -2.341 -0.6462
                    CHANNELS 3 Zrotation Xrotation Yrotation
                    JOINT LeftFinger42
                    {
                      OFFSET -0.3575 -1.7167 -0.4742
                      CHANNELS 3 Zrotation Xrotation Yrotation
                      End Site
                      {
                        OFFSET -0.4187 -1.5237 -0.3496
                      }
                    }
                  }
                }
                JOINT LeftFinger0
                {
                  OFFSET -1.42 -1.8761 1.4223
                  CHANNELS 3 Zrotation Xrotation Yrotation
                  JOINT LeftFinger01
                  {
                    OFFSET -1.1471 -3.4929 2.6334
                    CHANNELS 3 Zrotation Xrotation Yrotation
                    JOINT LeftFinger02
                    {
                      OFFSET -0.823 -2.3 1.6571
                      CHANNELS 3 Zrotation Xrotation Yrotation
                      End Site
                      {
                        OFFSET -0.5822 -1.6914 1.1582
                      }
                    }
                  }
                }
              }
            }
          }
        }
        JOINT RightCollar
        {
          OFFSET -2.2603 21.606 7.4023
          CHANNELS 3 Zrotation Xrotation Yrotation
          JOINT RightShoulder
          {
            OFFSET -13.5187 -1.1334 -5.0155
            CHANNELS 3 Zrotation Xrotation Yrotation
            JOINT RightElbow
            {
              OFFSET 0.0994 -28.0499 -0.2431
              CHANNELS 3 Zrotation Xrotation Yrotation
              JOINT RightWrist
              {
                OFFSET -0.0679 -23.3996 -0.1402
                CHANNELS 3 Zrotation Xrotation Yrotation
                JOINT RightFinger1
                {
                  OFFSET -0.7932 -9.0691 2.5189
                  CHANNELS 3 Zrotation Xrotation Yrotation
                  JOINT RightFinger11
                  {
                    OFFSET 0.8272 -3.3923 0.5977
                    CHANNELS 3 Zrotation Xrotation Yrotation
                    JOINT RightFinger12
                    {
                      OFFSET 0.565 -2.3158 0.4082
                      CHANNELS 3 Zrotation Xrotation Yrotation
                      End Site
                      {
                        OFFSET 0.4919 -1.6479 0.2673
                      }
                    }
                  }
                }
                JOINT RightFinger2
                {
                  OFFSET -0.916 -9.2044 0.2193
                  CHANNELS 3 Zrotation Xrotation Yrotation
                  JOINT RightFinger21
                  {
                    OFFSET -0.0117 -4.1944 -0.0248
                    CHANNELS 3 Zrotation Xrotation Yrotation
                    JOINT RightFinger22
                    {
                      OFFSET -0.0071 -2.3249 -0.0142
                      CHANNELS 3 Zrotation Xrotation Yrotation
                      End Site
                      {
                        OFFSET 0.1475 -2.0882 0.0028
                      }
                    }
                  }
                }
                JOINT RightFinger3
                {
                  OFFSET -0.6113 -8.7231 -2.0637
                  CHANNELS 3 Zrotation Xrotation Yrotation
                  JOINT RightFinger31
                  {
                    OFFSET 0.1927 -3.8059 -0.2383
                    CHANNELS 3 Zrotation Xrotation Yrotation
                    JOINT RightFinger32
                    {
                      OFFSET 0.1091 -2.1688 -0.1362
                      CHANNELS 3 Zrotation Xrotation Yrotation
                      End Site
                      {
                        OFFSET 0.2358 -1.9176 -0.0906
                      }
                    }
                  }
                }
                JOINT RightFinger4
                {
                  OFFSET 0.6151 -8.0947 -3.564
                  CHANNELS 3 Zrotation Xrotation Yrotation
                  JOINT RightFinger41
                  {
                    OFFSET 0.4882 -2.341 -0.6462
                    CHANNELS 3 Zrotation Xrotation Yrotation
                    JOINT RightFinger42
                    {
                      OFFSET 0.3574 -1.7166 -0.4742
                      CHANNELS 3 Zrotation Xrotation Yrotation
                      End Site
                      {
                        OFFSET 0.4187 -1.5237 -0.3496
                      }
                    }
                  }
                }
                JOINT RightFinger0
                {
                  OFFSET 1.4199 -1.8761 1.4221
                  CHANNELS 3 Zrotation Xrotation Yrotation
                  JOINT RightFinger01
                  {
                    OFFSET 1.1472 -3.4929 2.6336
                    CHANNELS 3 Zrotation Xrotation Yrotation
                    JOINT RightFinger02
                    {
                      OFFSET 0.8229 -2.3 1.6571
                      CHANNELS 3 Zrotation Xrotation Yrotation
                      End Site
                      {
                        OFFSET 0.5822 -1.6914 1.1582
                      }
                    }
                  }
                }
              }
            }
          }
        }
      }
    }
  }
  JOINT RightHip
  {
    OFFSET -9.412 3.9771 -0.7758
    CHANNELS 3 Zrotation Xrotation Yrotation
    JOINT RightKnee
    {
      OFFSET -0.7531 -40.938 0
      CHANNELS 3 Zrotation Xrotation Yrotation
      JOINT RightAnkle
      {
        OFFSET 0 -40.1986 0
        CHANNELS 3 Zrotation Xrotation Yrotation
        JOINT RightToe
        {
          OFFSET 0 -4.4182 9.239
          CHANNELS 3 Zrotation Xrotation Yrotation
          End Site
          {
            OFFSET 0 0 6.1981
          }
        }
      }
    }
  }
  JOINT LeftHip
  {
    OFFSET 9.4119 3.9773 -0.7758
    CHANNELS 3 Zrotation Xrotation Yrotation
    JOINT LeftKnee
    {
      OFFSET 0.7532 -40.9383 0
      CHANNELS 3 Zrotation Xrotation Yrotation
      JOINT LeftAnkle
      {
        OFFSET 0 -40.1986 0
        CHANNELS 3 Zrotation Xrotation Yrotation
        JOINT LeftToe
        {
          OFFSET 0 -4.4182 9.239
          CHANNELS 3 Zrotation Xrotation Yrotation
          End Site
          {
            OFFSET 0 0 6.1981
          }
        }
      }
    }
  }
}
MOTION
Frames:	6
Frame Time:	0.0333333
5.72205e-005 65.662 3.42586 0 0 -0 0 0 -0 0 0 -0 0 0 -0 0 0 -0 0 0 -0 0 0 -12.5014 88.1196 14.2451 10.6914 -0.00160068 -0.00239207 0.000740045 -8.4365e-005 7.00714e-005 -9.52055e-007 9.93923e-017 -1.98785e-016 -1.59028e-015 9.93923e-017 -5.96354e-016 -1.59028e-015 -9.93923e-017 -5.96354e-016 -1.59028e-015 9.93923e-017 -1.98785e-016 -1.59028e-015 -0.0128176 0.00232552 8.52707e-005 9.93923e-017 5.96354e-016 -0 9.93923e-017 -1.98785e-016 -1.59028e-015 -0.0160551 0.00299681 0.000857156 -2.48481e-016 0 3.18055e-015 9.93923e-017 -1.98785e-016 -1.59028e-015 -0.0125865 0.0031206 0.00282719 0 1.98785e-016 -0 9.93923e-017 -1.98785e-016 -1.59028e-015 9.93923e-017 -5.96354e-016 -1.59028e-015 -9.93923e-017 -5.96354e-016 -1.59028e-015 -0.865644 0.16582 7.03859 -88.0329 10.2057 -10.5567 0.0015593 -0.00248883 -0.000788628 7.87605e-005 4.10553e-005 1.24965e-005 -3.97569e-016 -7.95139e-016 3.18055e-015 -1.98785e-016 -3.97569e-016 3.18055e-015 -1.98785e-016 0 3.18055e-015 -3.97569e-016 -7.95139e-016 3.18055e-015 0.0129473 0.00231697 -8.70038e-005 9.93923e-017 -7.95139e-016 1.59028e-015 -3.97569e-016 -7.95139e-016 3.18055e-015 0.0163314 0.00303369 -0.000872333 3.97569e-016 7.95139e-016 -3.18055e-015 -3.97569e-016 -7.95139e-016 3.18055e-015 0.0145763 0.00367772 -0.00326275 9.93923e-017 -3.97569e-016 -0 -3.97569e-016 -7.95139e-016 3.18055e-015 -1.98785e-016 -3.97569e-016 3.18055e-015 -1.98785e-016 0 3.18055e-015 3.42482 1.32465 -0.0626183 0.000117508 0.717283 0.000978199 -3.4257 -2.04197 -0.0604716 6.47761e-025 0 -0 -3.42483 1.34017 0.0627307 -0.000193936 0.682302 -0.0013703 3.42574 -2.02253 0.0595886 -8.45714e-024 0 -7.40531e-025 
0.736195 25.994 -0.826112 6.5594e-009 21.5975 -1.92824e-008 -0.238492 6.85162 -0.185517 -0.459438 13.7039 -0.34582 -0.459439 13.704 -0.345821 -1.04307e-006 3.40189e-005 -7.76899e-007 8.83259e-008 1.12558e-009 -5.99004e-008 -5.93137 0.731771 -33.4653 74.0767 -29.1858 35.1751 1.78935 -4.58137 15.0105 18.7355 -1.71789 -0.953669 4.18271e-006 -3.03518e-006 -2.42923e-006 2.32389e-006 2.56228e-006 -7.42645e-007 3.18055e-015 3.18055e-015 -2.38542e-015 4.18271e-006 -3.03518e-006 -2.42923e-006 -0.0128122 0.00232575 8.69658e-005 -1.19271e-015 -3.18055e-015 -1.59028e-015 4.18271e-006 -3.03518e-006 -2.42923e-006 -0.0160782 0.00300544 0.000865329 6.50609e-006 1.29977e-006 -3.1715e-006 4.18271e-006 -3.03518e-006 -2.42923e-006 -0.0126438 0.00313933 0.00283902 -3.97569e-015 -6.36111e-015 3.18055e-015 4.18271e-006 -3.03518e-006 -2.42923e-006 2.32389e-006 2.56228e-006 -7.42645e-007 3.18055e-015 3.18055e-015 -2.38542e-015 5.09424 0.415223 28.2703 -71.0384 -36.9146 -17.4845 -2.5594 -2.32519 -15.1075 -19.5561 -2.12282 0.538454 5.76061e-006 6.42586e-006 -7.56465e-006 -1.59028e-015 3.18055e-015 -9.54166e-015 3.18055e-015 0 -9.54166e-015 5.76061e-006 6.42586e-006 -7.56465e-006 0.0129368 0.00231191 -8.66974e-005 4.77083e-015 6.36111e-015 -9.54166e-015 5.76061e-006 6.42586e-006 -7.56465e-006 0.0163344 0.00303276 -0.000868538 -4.77083e-015 -3.18055e-015 -0 5.76061e-006 6.42586e-006 -7.56465e-006 0.0145912 0.00368002 -0.00326131 -3.18055e-015 -3.18055e-015 3.18055e-015 5.76061e-006 6.42586e-006 -7.56465e-006 -1.59028e-015 3.18055e-015 -9.54166e-015 3.18055e-015 0 -9.54166e-015 -23.133 -50.3325 -22.3301 -137.04 69.2271 146.436 13.3114 25.2232 -11.129 -4.33701e-006 -1.23273e-005 4.36674e-006 23.0167 -50.4258 22.3774 137.125 69.266 -146.454 -13.1647 24.8596 11.2261 6.86532e-007 -1.55464e-007 9.86189e-007 
1.06368 8.45136 -2.67028 4.53014e-009 30.7312 2.21008e-008 -0.303685 10.0669 -0.307486 -0.564909 20.1352 -0.573405 -0.564909 20.1353 -0.573406 7.37077e-006 -0.000233228 7.47415e-006 -9.21698e-007 1.40271e-005 -2.05532e-007 -8.5376 0.97924 -42.3955 69.3842 -49.6405 46.2278 2.6225 -6.84183 21.5986 27.122 -2.03076 -1.22667 1.36142e-008 8.52503e-007 2.129e-007 4.08427e-008 -4.30419e-007 6.38701e-007 -5.2181e-015 -8.5278e-007 3.97569e-016 1.36142e-008 8.52503e-007 2.129e-007 -0.0128265 0.00232695 8.53178e-005 2.72142e-008 -2.46347e-010 4.25802e-007 1.36142e-008 8.52503e-007 2.129e-007 -0.0160575 0.00299632 0.000858783 -2.85753e-015 -1.59028e-015 3.97569e-016 1.36142e-008 8.52503e-007 2.129e-007 -0.0125912 0.00312473 0.00282717 1.67662e-006 4.10109e-007 9.43829e-007 1.36142e-008 8.52503e-007 2.129e-007 4.08427e-008 -4.30419e-007 6.38701e-007 -5.2181e-015 -8.5278e-007 3.97569e-016 7.78186 0.477001 37.312 -65.0368 -58.8512 -21.4163 -3.73002 -3.53778 -21.7586 -28.2997 -2.5418 0.625946 -1.57118e-006 2.28527e-006 1.91996e-007 -2.99486e-007 5.44369e-006 4.36585e-006 1.59028e-015 0 -0 -1.57118e-006 2.28527e-006 1.91996e-007 0.0129415 0.0023207 -8.54095e-005 -1.87054e-006 4.3638e-006 4.55777e-006 -1.57118e-006 2.28527e-006 1.91996e-007 0.0163238 0.00303937 -0.000865667 -7.95139e-016 3.18055e-015 -3.18055e-015 -1.57118e-006 2.28527e-006 1.91996e-007 0.0145891 0.00368529 -0.00326058 1.76556e-031 -1.59028e-015 6.36111e-015 -1.57118e-006 2.28527e-006 1.91996e-007 -2.99486e-007 5.44369e-006 4.36585e-006 1.59028e-015 0 -0 -66.4823 -64.9511 -56.4139 -158.584 26.5814 162.783 23.606 38.1635 -16.4901 -7.95139e-016 3.18055e-015 -7.95139e-016 66.4767 -64.9632 56.6849 158.666 26.5874 -162.805 -23.354 37.5581 16.5941 -7.73597e-007 4.6147e-006 2.61771e-006 
0.991922 12.1072 -1.96697 -1.24475e-008 27.4005 1.2554e-008 -0.296148 9.64776 -0.273314 -0.556953 19.2968 -0.506212 -0.556953 19.2968 -0.506213 4.57334e-006 -0.000133404 4.02177e-006 -9.93923e-017 -4.77083e-015 -4.84538e-016 -8.19894 0.9262 -39.2863 69.2601 -46.5516 41.4192 2.39974 -6.68654 19.8275 25.1435 -1.28999 -1.5641 1.33247e-007 8.46805e-007 8.41977e-007 -4.47266e-015 0 -1.98785e-015 6.66234e-008 1.68624e-006 4.20989e-007 1.33247e-007 8.46805e-007 8.41977e-007 -0.0127764 0.00231887 8.41354e-005 -7.28714e-006 3.74824e-006 2.42651e-006 1.33247e-007 8.46805e-007 8.41977e-007 -0.0160018 0.0029897 0.000856448 6.65948e-008 1.70237e-006 4.20992e-007 1.33247e-007 8.46805e-007 8.41977e-007 -0.0126103 0.0031302 0.0028315 -1.49059e-006 1.71501e-006 6.29658e-007 1.33247e-007 8.46805e-007 8.41977e-007 -4.47266e-015 0 -1.98785e-015 6.66234e-008 1.68624e-006 4.20989e-007 7.41187 0.489315 34.1631 -65.3708 -55.1738 -19.1951 -3.4514 -3.52299 -19.9791 -26.1922 -1.76376 1.02528 -4.77083e-015 1.27222e-014 -9.54166e-015 1.4831e-006 1.45259e-006 4.5898e-006 -3.18055e-015 -3.18055e-015 6.36111e-015 -4.77083e-015 1.27222e-014 -9.54166e-015 0.0129727 0.00232722 -8.85614e-005 -6.52886e-006 -3.23792e-007 -7.46677e-007 -4.77083e-015 1.27222e-014 -9.54166e-015 0.0163299 0.00303619 -0.000872427 1.59028e-015 8.9679e-007 3.18055e-015 -4.77083e-015 1.27222e-014 -9.54166e-015 0.0145494 0.00366812 -0.00325257 1.30519e-005 5.13553e-006 -7.325e-006 -4.77083e-015 1.27222e-014 -9.54166e-015 1.4831e-006 1.45259e-006 4.5898e-006 -3.18055e-015 -3.18055e-015 6.36111e-015 -52.82 -61.6113 -45.5451 -155.656 35.7143 161.844 20.4925 34.9127 -15.2605 -3.65403e-007 4.67459e-006 -3.05476e-006 52.7814 -61.6626 45.7414 155.743 35.7301 -161.867 -20.2858 34.4003 15.368 -1.19702e-006 6.56945e-007 -1.21595e-006 
0.992053 11.9322 -1.73146 2.08108e-007 26.3333 -1.31822e-007 -0.29949 9.89018 -0.2694 -0.563856 19.7817 -0.496769 -0.563857 19.7817 -0.496769 4.89619e-006 -0.000144232 3.92914e-006 7.61025e-007 -3.2267e-005 2.2989e-007 -8.38993 0.919189 -38.3643 68.4012 -47.7304 39.5623 2.36933 -6.97098 19.5746 25.0529 -0.730934 -1.87583 6.52948e-008 -1.69884e-006 4.20534e-007 -1.3059e-007 -1.68574e-008 -8.41067e-007 -6.16232e-015 -1.59028e-015 -2.38542e-015 6.52948e-008 -1.69884e-006 4.20534e-007 -0.0128464 0.00233039 8.59641e-005 1.09332e-015 0 -1.59028e-015 6.52948e-008 -1.69884e-006 4.20534e-007 -0.0160694 0.00300301 0.000858735 2.48481e-015 -3.18055e-015 -7.95139e-016 6.52948e-008 -1.69884e-006 4.20534e-007 -0.0126281 0.00313515 0.00283772 -3.57812e-015 3.18055e-015 7.95139e-016 6.52948e-008 -1.69884e-006 4.20534e-007 -1.3059e-007 -1.68574e-008 -8.41067e-007 -6.16232e-015 -1.59028e-015 -2.38542e-015 7.59507 0.503479 33.2287 -64.7207 -56.1503 -18.2387 -3.43806 -3.73527 -19.7317 -26.0615 -1.19012 1.35362 4.06502e-006 3.05575e-006 -2.07142e-006 -4.77083e-015 -6.36111e-015 -0 -7.95139e-015 3.18055e-015 -3.18055e-015 4.06502e-006 3.05575e-006 -2.07142e-006 0.0129814 0.00231887 -8.81577e-005 3.18055e-015 -9.54166e-015 6.36111e-015 4.06502e-006 3.05575e-006 -2.07142e-006 0.0162761 0.00302202 -0.000869488 -1.59028e-015 -6.36111e-015 9.54166e-015 4.06502e-006 3.05575e-006 -2.07142e-006 0.0145945 0.00368333 -0.00326724 -1.03452e-006 -3.09803e-006 1.70905e-006 4.06502e-006 3.05575e-006 -2.07142e-006 -4.77083e-015 -6.36111e-015 -0 -7.95139e-015 3.18055e-015 -3.18055e-015 -52.6976 -60.4763 -45.0334 -155.614 35.7585 161.834 19.5329 34.9372 -14.8102 4.48769e-007 6.46293e-006 -4.89731e-006 52.6556 -60.5259 45.219 155.704 35.7725 -161.858 -19.3402 34.4447 14.9196 -5.99542e-007 6.17617e-007 -6.07015e-007 
0.992187 11.7603 -1.49602 -2.96624e-009 25.264 5.69468e-009 -0.302851 10.1332 -0.265429 -0.570871 20.2677 -0.48716 -0.570871 20.2678 -0.48716 6.22208e-006 -0.000198841 5.97151e-006 1.03517e-007 2.07226e-009 -2.59507e-008 -8.58107 0.909084 -37.4411 67.4632 -48.8885 37.6339 2.33748 -7.25561 19.3213 24.9653 -0.171056 -2.18685 4.57174e-006 2.08414e-006 5.65213e-007 -6.37539e-008 4.74562e-007 -4.1988e-007 -6.37539e-008 1.68496e-006 -4.1988e-007 4.57174e-006 2.08414e-006 5.65213e-007 -0.0128747 0.00233044 8.33755e-005 -1.27454e-007 -1.23694e-008 -8.39765e-007 4.57174e-006 2.08414e-006 5.65213e-007 -0.0160298 0.00299205 0.000855541 -1.2744e-007 8.42502e-007 -8.39768e-007 4.57174e-006 2.08414e-006 5.65213e-007 -0.0125686 0.00311542 0.00282075 -1.39149e-015 8.42498e-007 7.95139e-016 4.57174e-006 2.08414e-006 5.65213e-007 -6.37539e-008 4.74562e-007 -4.1988e-007 -6.37539e-008 1.68496e-006 -4.1988e-007 7.77878 0.514645 32.2929 -64.0221 -57.1198 -17.2354 -3.42363 -3.94835 -19.4843 -25.934 -0.615332 1.68084 -1.52226e-006 -2.92403e-006 1.66514e-007 -3.51288e-006 1.50871e-006 -1.19251e-006 2.38542e-015 -6.36111e-015 -0 -1.52226e-006 -2.92403e-006 1.66514e-007 0.0129236 0.00231823 -9.29243e-005 -3.97569e-015 -6.36111e-015 3.18055e-015 -1.52226e-006 -2.92403e-006 1.66514e-007 0.0163418 0.0030392 -0.000870507 -2.38542e-015 -1.59028e-015 -3.18055e-015 -1.52226e-006 -2.92403e-006 1.66514e-007 0.0145763 0.00368475 -0.00326063 2.10869e-006 -3.55794e-007 -3.38413e-006 -1.52226e-006 -2.92403e-006 1.66514e-007 -3.51288e-006 1.50871e-006 -1.19251e-006 2.38542e-015 -6.36111e-015 -0 -52.5956 -59.3418 -44.5407 -155.571 35.8019 161.822 18.5736 34.956 -14.3604 1.78569e-006 6.61035e-007 1.83395e-006 52.5532 -59.3892 44.7181 155.662 35.8138 -161.848 -18.3944 34.4836 14.471 3.58116e-006 4.8779e-006 2.21624e-006 
